<?xml version="1.0" encoding="UTF-8"?>
<svg id="b" data-name="Layer 2" xmlns="http://www.w3.org/2000/svg" width="810.6894531" height="86.4697266" viewBox="0 0 810.6894531 86.4697266">
  <g id="c" data-name="compound paths">
    <path d="M271.7841797,24.4228516c-5.9785156-2.7866211-12.9277344-4.1806641-20.8476562-4.1806641-7.8496094,0-14.7607422,1.394043-20.7373047,4.1806641-5.9785156,2.7880859-10.6162109,6.6557617-13.9169922,11.6064453-3.3007812,4.9501953-4.9501953,10.7255859-4.9501953,17.3261719,0,6.5292969,1.6494141,12.2851562,4.9501953,17.2724609,3.3007812,4.9882812,7.9208984,8.875,13.8613281,11.6611328,5.9414062,2.7861328,12.8720703,4.1806641,20.7929688,4.1806641,7.9199219,0,14.8691406-1.3945312,20.8476562-4.1806641,5.9765625-2.7861328,10.6152344-6.65625,13.9160156-11.6064453s4.9511719-10.7265625,4.9511719-17.3271484-1.6503906-12.3759766-4.9511719-17.3261719c-3.3007812-4.9506836-7.9394531-8.8183594-13.9160156-11.6064453ZM267.7128906,62.8164062c-1.5039062,2.640625-3.6679688,4.6757812-6.4902344,6.1064453-2.8242188,1.4296875-6.2539062,2.1445312-10.2861328,2.1445312-3.8886719,0-7.2617188-.7148438-10.1210938-2.1445312-2.8603516-1.4306641-5.0605469-3.4658203-6.6015625-6.1064453-1.5390625-2.6396484-2.3095703-5.7919922-2.3095703-9.4609375,0-3.6660156.7705078-6.8203125,2.3095703-9.4609375,1.5410156-2.6396484,3.7412109-4.6757812,6.6015625-6.1054688,2.859375-1.4296875,6.2324219-2.1450195,10.1210938-2.1450195,4.0322266,0,7.4619141.715332,10.2861328,2.1450195,2.8222656,1.4296875,4.9863281,3.4658203,6.4902344,6.1054688,1.5029297,2.640625,2.2548828,5.7949219,2.2548828,9.4609375,0,3.6689453-.7519531,6.8212891-2.2548828,9.4609375ZM68.6474609,38.7246094c-2.8603516-5.8671875-6.9306641-10.4135742-12.2109375-13.6416016-5.28125-3.2265625-11.5898438-4.8408203-18.921875-4.8408203-7.1894531,0-13.625,1.394043-19.3076172,4.1806641-5.6845703,2.7880859-10.1396484,6.6386719-13.3662109,11.5512695C1.6123047,40.8886719,0,46.609375,0,53.1357422c0,6.6748047,1.6865234,12.5048828,5.0605469,17.4921875,3.3720703,4.9882812,8.0117188,8.875,13.9169922,11.6611328,5.9023438,2.7861328,12.5957031,4.1806641,20.0761719,4.1806641,6.3066406,0,12.1933594-.8085938,17.6572266-2.4208984,5.4628906-1.6123047,10.3222656-3.8857422,14.5771484-6.8203125v-13.3115234c-3.7402344,2.3476562-7.9589844,4.1630859-12.6523438,5.4453125-4.6933594,1.2841797-9.3886719,1.9257812-14.0810547,1.9257812-5.1337891,0-9.4794922-.7705078-13.0361328-2.3105469-3.5585938-1.5400391-6.2714844-3.7763672-8.140625-6.7109375-.5698242-.8931274-1.0419922-1.8513794-1.4379883-2.8603516h50.9985352c0-7.9208984-1.4306641-14.8134766-4.2910156-20.6816406ZM28.7128906,37.0742188c2.5664062-1.3925781,5.6103516-2.090332,9.1318359-2.090332,3.2255859,0,6.0117188.6430664,8.3603516,1.925293,2.3466797,1.2841797,4.2353516,3.1181641,5.6650391,5.5.7390137,1.2317505,1.3093262,2.611145,1.7253418,4.1259766H21.2250977c.354248-1.2909546.8464355-2.5042114,1.4926758-3.6308594,1.4296875-2.4921875,3.4277344-4.4365234,5.9951172-5.8300781ZM198.9560547,33.9936523c2.0908203,4.4008789,3.1357422,9.6450195,3.1357422,15.7319336v34.9833984h-20.4619141v-31.9033203c0-5.2070312-1.1386719-9.1484375-3.4101562-11.8261719-2.2744141-2.6767578-5.6113281-4.0151367-10.0117188-4.0151367-3.0800781,0-5.7392578.7143555-7.9755859,2.1450195-2.2382812,1.4296875-3.9599609,3.4482422-5.1708984,6.0507812-1.2099609,2.6035156-1.8144531,5.703125-1.8144531,9.2958984v30.2529297h-20.4628906v-31.9033203c0-5.2070312-1.1376953-9.1484375-3.4101562-11.8261719-2.2744141-2.6767578-5.6113281-4.0151367-10.0117188-4.0151367-3.0800781,0-5.7382812.7143555-7.9746094,2.1450195-2.2382812,1.4296875-3.9609375,3.4482422-5.171875,6.0507812-1.2089844,2.6035156-1.8144531,5.703125-1.8144531,9.2958984v30.2529297h-20.4628906v-41.3642578l-3.9599609-21.3422852h20.3525391l2.2148438,13.2895508c.1945801-.3616943.3842773-.7289429.5898438-1.078125,2.6767578-4.5463867,6.0136719-8.0117188,10.0117188-10.3959961,3.9960938-2.3823242,8.4160156-3.5756836,13.2558594-3.5756836,5.7207031,0,10.578125,1.1933594,14.5771484,3.5756836,3.9970703,2.3842773,7.0400391,5.7753906,9.1308594,10.1757812.309082.6503296.5878906,1.3250122.8510742,2.012207.3068848-.6143188.6276855-1.2122803.9643555-1.7919922,2.640625-4.5463867,5.9765625-8.0117188,10.0107422-10.3959961,4.0322266-2.3823242,8.4326172-3.5756836,13.2021484-3.5756836,5.7207031,0,10.5966797,1.1933594,14.6308594,3.5756836,4.0332031,2.3842773,7.0957031,5.7753906,9.1855469,10.1757812ZM422.6640625,0l-4.0837402,35.5992432c-3.0891113-4.7830811-6.9316406-8.5319214-11.5373535-11.2315674-4.6943359-2.75-9.9755859-4.1254883-15.8417969-4.1254883-6.1611328,0-11.5703125,1.394043-16.2275391,4.1806641-4.6582031,2.7880859-8.3046875,6.6557617-10.9453125,11.6064453-2.640625,4.9501953-3.9609375,10.7255859-3.9609375,17.3261719s1.3203125,12.3769531,3.9609375,17.3271484,6.2871094,8.8203125,10.9453125,11.6064453c4.6572266,2.7861328,10.0664062,4.1806641,16.2275391,4.1806641,5.8662109,0,11.1474609-1.375,15.8417969-4.1259766,4.659668-2.730896,8.5249023-6.5498657,11.5947266-11.4505005l1.6064453,13.8157349h21.1220703l-3.7402344-32.8935547,6.2705078-51.8154297h-21.2324219ZM406.328125,68.4824219c-2.8984375,1.5039062-5.9599609,2.2548828-9.1865234,2.2548828-3.2285156,0-6.0693359-.7509766-8.5253906-2.2548828-2.4589844-1.5019531-4.3837891-3.5566406-5.7763672-6.1611328-1.3935547-2.6015625-2.0898438-5.5908203-2.0898438-8.9658203,0-3.3720703.6962891-6.3613281,2.0898438-8.9658203,1.3925781-2.6025391,3.3173828-4.65625,5.7763672-6.1601562,2.4560547-1.5024414,5.296875-2.2553711,8.5253906-2.2553711,3.2265625,0,6.2880859.7529297,9.1865234,2.2553711,2.8955078,1.5039062,5.4453125,3.5576172,7.6455078,6.1601562,2.2001953,2.6044922,3.8505859,5.59375,4.9501953,8.9658203-1.0996094,3.375-2.75,6.3642578-4.9501953,8.9658203-2.2001953,2.6044922-4.75,4.6591797-7.6455078,6.1611328ZM662.8886719,24.4228516c-5.9785156-2.7866211-12.9257812-4.1806641-20.8466797-4.1806641-7.8486328,0-14.7607422,1.394043-20.7373047,4.1806641-5.9785156,2.7880859-10.6162109,6.6557617-13.9169922,11.6064453-3.2998047,4.9501953-4.9501953,10.7255859-4.9501953,17.3261719,0,6.5292969,1.6503906,12.2851562,4.9501953,17.2724609,3.3007812,4.9882812,7.9208984,8.875,13.8613281,11.6611328,5.9414062,2.7861328,12.8720703,4.1806641,20.7929688,4.1806641s14.8681641-1.3945312,20.8466797-4.1806641c5.9775391-2.7861328,10.6162109-6.65625,13.9169922-11.6064453,3.2998047-4.9501953,4.9501953-10.7265625,4.9501953-17.3271484s-1.6503906-12.3759766-4.9501953-17.3261719c-3.3007812-4.9506836-7.9394531-8.8183594-13.9169922-11.6064453ZM658.8183594,62.8164062c-1.5039062,2.640625-3.6679688,4.6757812-6.4902344,6.1064453-2.8242188,1.4296875-6.2539062,2.1445312-10.2861328,2.1445312-3.8886719,0-7.2607422-.7148438-10.1210938-2.1445312-2.8603516-1.4306641-5.0605469-3.4658203-6.6005859-6.1064453-1.5410156-2.6396484-2.3105469-5.7919922-2.3105469-9.4609375,0-3.6660156.7695312-6.8203125,2.3105469-9.4609375,1.5400391-2.6396484,3.7402344-4.6757812,6.6005859-6.1054688s6.2324219-2.1450195,10.1210938-2.1450195c4.0322266,0,7.4619141.715332,10.2861328,2.1450195,2.8222656,1.4296875,4.9863281,3.4658203,6.4902344,6.1054688,1.5029297,2.640625,2.2558594,5.7949219,2.2558594,9.4609375,0,3.6689453-.7529297,6.8212891-2.2558594,9.4609375ZM810.6894531,49.7255859v34.9833984h-20.4628906v-31.9033203c0-5.2070312-1.1376953-9.1484375-3.4101562-11.8261719-2.2744141-2.6767578-5.6103516-4.0151367-10.0107422-4.0151367-3.0800781,0-5.7402344.7143555-7.9765625,2.1450195-2.2373047,1.4296875-3.9599609,3.4482422-5.1699219,6.0507812-1.2099609,2.6035156-1.8154297,5.703125-1.8154297,9.2958984v30.2529297h-20.4619141v-31.9033203c0-5.2070312-1.1386719-9.1484375-3.4111328-11.8261719-2.2734375-2.6767578-5.6103516-4.0151367-10.0107422-4.0151367-3.0800781,0-5.7392578.7143555-7.9755859,2.1450195-2.2382812,1.4296875-3.9609375,3.4482422-5.1708984,6.0507812-1.2099609,2.6035156-1.8154297,5.703125-1.8154297,9.2958984v30.2529297h-20.4619141v-41.3642578l-3.9599609-21.3422852h20.3515625l2.2150879,13.2906494c.1948242-.3620605.3847656-.7296753.5905762-1.0792236,2.6757812-4.5463867,6.0126953-8.0117188,10.0107422-10.3959961,3.9970703-2.3823242,8.4160156-3.5756836,13.2568359-3.5756836,5.7207031,0,10.578125,1.1933594,14.5761719,3.5756836,3.9970703,2.3842773,7.0410156,5.7753906,9.1308594,10.1757812.309082.6504517.5878906,1.3252563.8513184,2.0125732.3068848-.6144409.6276855-1.2125244.9641113-1.7923584,2.640625-4.5463867,5.9765625-8.0117188,10.0117188-10.3959961,4.0322266-2.3823242,8.4326172-3.5756836,13.2011719-3.5756836,5.7207031,0,10.5966797,1.1933594,14.6318359,3.5756836,4.0322266,2.3842773,7.0957031,5.7753906,9.1855469,10.1757812,2.0908203,4.4008789,3.1357422,9.6450195,3.1357422,15.7319336ZM348.3525391,69.6923828c2.3828125-.5498047,4.6376953-1.3007812,6.765625-2.2548828v15.5117188c-2.2001953.8798828-5.0800781,1.6875-8.6357422,2.4199219-3.5576172.7324219-7.2431641,1.1005859-11.0556641,1.1005859-6.6757812,0-12.1572266-1.0644531-16.4472656-3.1904297-4.2910156-2.1269531-7.4453125-5.1162109-9.4609375-8.9658203-2.0185547-3.8505859-3.0253906-8.3789062-3.0253906-13.5869141v-23.5429688h-12.9814453v-8.9101562l12.9814453-4.730957,8.8007812-18.2617188h11.6611328v16.7216797h27.0634766v15.1811523h-27.0634766v20.6826172c0,4.6943359.9521484,7.9755859,2.8603516,9.8457031,1.90625,1.8710938,5.3164062,2.8056641,10.2304688,2.8056641,3.1533203,0,5.921875-.2753906,8.3066406-.8251953ZM542.4804688,43.7851562c-1.4677734,2.6396484-2.2001953,5.8300781-2.2001953,9.5703125s.7324219,6.9306641,2.2001953,9.5712891c1.4658203,2.640625,3.5371094,4.6582031,6.2158203,6.0507812,2.6757812,1.3935547,5.8115234,2.0898438,9.40625,2.0898438,4.6201172,0,8.5068359-1.1171875,11.6611328-3.3554688,3.1523438-2.2363281,5.1328125-5.2617188,5.9404297-9.0751953h20.3525391c-.5878906,5.5-2.6230469,10.3408203-6.1064453,14.5214844s-7.9580078,7.4443359-13.4208984,9.7910156c-5.4648438,2.3457031-11.6064453,3.5205078-18.4267578,3.5205078-7.5546875,0-14.2294922-1.3945312-20.0224609-4.1806641-5.7949219-2.7861328-10.3056641-6.6728516-13.53125-11.6611328-3.2285156-4.9873047-4.8408203-10.7431641-4.8408203-17.2724609,0-6.5263672,1.6123047-12.2832031,4.8408203-17.2714844,3.2255859-4.9863281,7.7363281-8.8730469,13.53125-11.6611328,5.7929688-2.7866211,12.4677734-4.1806641,20.0224609-4.1806641,6.8203125,0,12.9619141,1.1743164,18.4267578,3.5205078,5.4628906,2.3481445,9.9375,5.5932617,13.4208984,9.7363281,3.4833984,4.1435547,5.5185547,9.0029297,6.1064453,14.5761719h-20.3525391c-.8076172-4.0322266-2.8056641-7.1132812-5.9960938-9.2412109-3.1904297-2.1259766-7.0595703-3.1899414-11.6054688-3.1899414-3.5947266,0-6.7304688.6977539-9.40625,2.090332-2.6787109,1.3935547-4.75,3.4101562-6.2158203,6.0507812ZM493.1484375,44.5078125c1.3564453,2.2744141,2.0351562,4.8779297,2.0351562,7.8105469,0,2.8603516-.6787109,5.4453125-2.0351562,7.7558594-1.3574219,2.3105469-3.1728516,4.1259766-5.4453125,5.4453125-2.2744141,1.3203125-4.8408203,1.9804688-7.7011719,1.9804688s-5.4453125-.6601562-7.7558594-1.9804688c-2.3095703-1.3193359-4.125-3.1523438-5.4453125-5.5-1.3203125-2.3466797-1.9804688-4.9130859-1.9804688-7.7011719,0-2.9326172.6601562-5.5361328,1.9804688-7.8105469,1.3203125-2.2724609,3.1357422-4.0703125,5.4453125-5.390625,2.3105469-1.3203125,4.8955078-1.9804688,7.7558594-1.9804688s5.4267578.6601562,7.7011719,1.9804688c2.2724609,1.3203125,4.0878906,3.1181641,5.4453125,5.390625Z" style="fill: #fff;"/>
  </g>
</svg>